<svg xmlns="http://www.w3.org/2000/svg" width="480" height="320" viewBox="0 0 480 320"><linearGradient id="a" gradientUnits="userSpaceOnUse" x1="240" x2="240" y2="320"><stop offset="0" stop-color="#CCC"/><stop offset="1" stop-color="#8c8c8c"/></linearGradient><path fill="url(#a)" d="M0 0h480v320H0z"/><path fill-rule="evenodd" clip-rule="evenodd" fill="#F1F1F1" d="M172.22 177.706c0 .798.643 1.445 1.437 1.445h30.188c.794 0 1.438-.646 1.438-1.444 0-.8-.644-1.445-1.438-1.445h-30.188a1.44 1.44 0 0 0-1.438 1.446zm24.436-14.454h3.594a1.44 1.44 0 0 0 1.438-1.445c0-.798-.644-1.445-1.438-1.445h-3.594c-.794 0-1.438.647-1.438 1.445s.644 1.445 1.438 1.445zm-43.125 0h36.657a1.44 1.44 0 0 0 1.438-1.445c0-.798-.644-1.445-1.438-1.445H153.53c-.793 0-1.437.647-1.437 1.445s.644 1.445 1.438 1.445zm-5.03-1.445c0-.798-.644-1.445-1.438-1.445h-8.625c-.794 0-1.438.647-1.438 1.445 0 .8.643 1.445 1.437 1.445h8.625c.794 0 1.438-.647 1.438-1.445zm13.656-14.454h17.25a1.44 1.44 0 0 0 1.438-1.445c0-.798-.644-1.445-1.438-1.445h-17.25c-.794 0-1.438.647-1.438 1.445s.644 1.445 1.438 1.445zm40.25-1.446c0-.798-.644-1.445-1.438-1.445h-15.094c-.794 0-1.438.647-1.438 1.445 0 .8.644 1.445 1.438 1.445h15.094a1.44 1.44 0 0 0 1.438-1.445zm-28.03-12.285h32.343c.793 0 1.437-.647 1.437-1.445 0-.8-.644-1.445-1.438-1.445h-32.345a1.44 1.44 0 0 0-1.438 1.445c0 .798.644 1.445 1.438 1.445zm107.497 27.35v-2.665h-11.198l-9.278-14.657h-15.9l-6.352-10.035-2.236 1.432 6.287 9.936-9.276 14.657 9.277 14.657-6.292 9.943 2.236 1.432 6.356-10.043h15.9l9.278-14.658h11.2zm-21.93 11.99h-14.45l-8.43-13.323 8.43-13.325h14.45l8.432 13.324-8.433 13.323zm24.58-17.32v-2.665h-9.875l-5.51-8.707-2.236 1.432 6.292 9.94h11.33zm-10.193 10.02l-2.235-1.43-6.365 10.057 7.068 11.372 2.248-1.413-6.184-9.948 5.468-8.64zm-34.662 23.916l2.248 1.414 6.236-10.034h11.192v-2.665h-12.66l-7.016 11.285zm-7.425-25.942h-11.33v2.665h9.875l5.654 8.936 2.236-1.432-6.435-10.168zm7.465-18.648l-7.068-11.373-2.248 1.413 6.184 9.946-5.525 8.73 2.237 1.432 6.42-10.148zm26.062-15.29l-2.248-1.413-6.236 10.034h-9.867v2.664h11.335l7.015-11.286zm76.793 70.41h-4.313c-.794 0-1.438.648-1.438 1.446s.644 1.446 1.438 1.446h4.313c.794 0 1.438-.647 1.438-1.445s-.644-1.446-1.437-1.446zm-12.938 0h-7.553s-3.79-4.335-4.666-4.335-2.156 1.445-2.156 1.445-3.863-6.505-5.03-6.505-5.032 5.782-5.032 5.782-1.926-2.315-2.875-2.168c-.95.146-6.664 5.78-6.664 5.78h-29.607c16.874-5.63 29.083-21.64 29.083-40.47 0-23.51-19.023-42.64-42.406-42.64s-42.406 19.13-42.406 42.64c0 18.83 12.21 34.84 29.083 40.47H186.23s-4.083-4.335-4.666-4.335c-.584 0-1.438 1.445-1.438 1.445s-4.437-6.882-5.75-5.782c-1.313 1.1-2.875 5.06-2.875 5.06s-1.353-2.032-2.155-1.445c-.803.586-5.7 5.06-5.7 5.06h-16.58c-.795 0-1.44.646-1.44 1.444s.645 1.445 1.44 1.445h182.562c.794 0 1.438-.648 1.438-1.446s-.646-1.445-1.44-1.445zm-63.336-2.896l4.383-6.927h7.535a39.72 39.72 0 0 1-11.92 6.927zm26.185-37.573c0 2.39-.222 4.726-.623 7.002l-4.432-7.003 4.432-7.003c.4 2.275.623 4.612.623 7.002zm-14.267-30.648h-7.533l-4.385-6.926a39.69 39.69 0 0 1 11.918 6.926zm-39.062-6.926l-4.383 6.926h-7.534a39.752 39.752 0 0 1 11.916-6.926zm-26.183 37.573c0-2.39.222-4.728.623-7.003l4.432 7.002-4.432 7a40.305 40.305 0 0 1-.623-7zm14.266 30.645h7.533l4.383 6.926a39.73 39.73 0 0 1-11.917-6.925zm25.49 9.327a39.46 39.46 0 0 1-9.672-1.202l-6.83-10.79h-11.855a40.02 40.02 0 0 1-9.952-17.317l5.906-9.332h11.2v-2.663h-11.2l-5.906-9.332a40.033 40.033 0 0 1 9.953-17.317h11.855l6.83-10.79a39.508 39.508 0 0 1 19.342 0l5.985 9.457-6.293 9.944 2.236 1.43 6.355-10.042h10.4a40.02 40.02 0 0 1 9.952 17.317l-6.748 10.664 6.748 10.663a40.02 40.02 0 0 1-9.952 17.317H270.68l-6.237-10.034-2.247 1.414 6.184 9.946-5.992 9.465c-3.097.782-6.335 1.202-9.67 1.202z"/></svg>