<svg xmlns="http://www.w3.org/2000/svg" width="690.397" height="94.113" viewBox="152.676 436.817 690.397 94.113"><path fill="#1D9A52" d="M219.08 481.926c-3.376-2.036-6.275-3.535-8.702-4.496-2.422-.96-6.504-2.345-12.248-4.152-5.75-1.81-9.855-3.392-12.33-4.746-2.484-1.358-3.728-3.225-3.728-5.598 0-4.295 3.916-6.445 11.75-6.445 7.827 0 15.685 2.712 23.57 8.14l9.462-16.957c-10.702-7.232-21.403-10.855-32.105-10.855-10.704 0-19.432 2.66-26.192 7.97-6.76 5.314-10.138 12.184-10.138 20.606 0 8.42 3.438 14.78 10.31 19.072 3.378 2.153 6.393 3.792 9.04 4.92 2.648 1.133 6.473 2.488 11.487 4.07 5.014 1.58 8.844 3.28 11.492 5.085 2.64 1.81 3.972 3.79 3.972 5.935 0 2.152-.963 3.874-2.874 5.174-1.913 1.298-4.506 1.947-7.773 1.947-10.702 0-20.785-3.672-30.242-11.02l-11.156 15.944c5.852 4.745 12.443 8.336 19.773 10.762 7.318 2.436 14.354 3.648 21.122 3.648 10.138 0 18.498-2.71 25.093-8.14 6.584-5.427 9.88-12.633 9.88-21.62s-3.15-15.4-9.464-19.244zm63.28-45.11c-13.796 0-25.258 4.555-34.385 13.652-9.12 9.1-13.688 20.264-13.688 33.49 0 13.228 4.567 24.367 13.688 33.406 9.127 9.047 20.59 13.566 34.385 13.566 13.803 0 25.265-4.52 34.393-13.566 9.125-9.04 13.687-20.178 13.687-33.406 0-13.226-4.563-24.39-13.687-33.49-9.128-9.096-20.59-13.65-34.393-13.65zm16.225 65.373c-4.224 4.693-9.63 7.035-16.225 7.035-6.583 0-11.996-2.342-16.217-7.036-4.23-4.69-6.34-10.77-6.34-18.232 0-7.46 2.11-13.565 6.34-18.312 4.222-4.746 9.634-7.123 16.217-7.123 6.595 0 12 2.376 16.225 7.123 4.224 4.747 6.338 10.852 6.338 18.312 0 7.46-2.114 13.542-6.338 18.23zm85.756 6.19c-6.423 0-12.024-2.146-16.812-6.447-4.788-4.29-7.184-10.31-7.184-18.058 0-7.742 2.396-13.79 7.184-18.143 4.787-4.353 10.498-6.53 17.15-6.53 4.168 0 8.364.96 12.588 2.882 4.224 1.926 7.8 4.638 10.73 8.14l13.18-17.295c-5.068-5.316-10.96-9.327-17.657-12.04-6.7-2.715-13.32-4.073-19.855-4.073-13.067 0-24.365 4.382-33.88 13.145-9.52 8.76-14.283 20.123-14.283 34.082 0 13.963 4.708 25.27 14.11 33.916 9.406 8.65 20.925 12.97 34.558 12.97 13.63 0 26.306-6.105 38.025-18.313l-15.04-16.955c-6.762 8.477-14.366 12.718-22.814 12.718zm89.892 0c-6.42 0-12.025-2.146-16.81-6.447-4.79-4.29-7.18-10.31-7.18-18.058 0-7.742 2.39-13.79 7.18-18.143 4.784-4.353 10.5-6.53 17.153-6.53 4.162 0 8.363.96 12.585 2.882 4.223 1.926 7.803 4.638 10.734 8.14l13.175-17.295c-5.07-5.316-10.96-9.327-17.66-12.04-6.7-2.715-13.318-4.073-19.85-4.073-13.07 0-24.367 4.382-33.885 13.145-9.52 8.76-14.278 20.123-14.278 34.082 0 13.963 4.703 25.27 14.112 33.916 9.403 8.65 20.917 12.97 34.55 12.97 13.633 0 26.307-6.105 38.028-18.313l-15.043-16.955c-6.754 8.477-14.365 12.718-22.813 12.718zm119.382-60.198c-8.726-7.573-19.35-11.365-31.853-11.365s-23.347 4.24-32.53 12.717c-9.18 8.48-13.766 19.9-13.766 34.254 0 14.362 4.498 25.806 13.518 34.336 9.01 8.54 20.417 12.806 34.22 12.806 13.795 0 25.82-4.855 36.076-14.58l-14.197-15.436c-5.74 5.994-13.065 8.99-21.963 8.99-5.524 0-10.478-1.58-14.872-4.75-4.395-3.16-6.988-7.232-7.77-12.208h66.24V479.38c0-13.224-4.37-23.627-13.1-31.198zm-52.468 26.622c.68-5.202 3.096-9.33 7.27-12.383 4.163-3.05 8.755-4.574 13.77-4.574 5.013 0 9.27 1.47 12.76 4.412 3.49 2.937 5.517 7.117 6.084 12.546h-39.884zm128.086-14.076l-.166-23.91c-5.073.116-10.057 1.47-14.954 4.07-4.905 2.603-8.985 5.768-12.254 9.496v-12.037h-25.345v91.228h25.345v-39.513c0-8.813 1.86-15.908 5.578-21.28 3.715-5.367 9.348-8.054 16.9-8.054h4.896zm11.365 44.68c-2.87-2.882-6.393-4.32-10.562-4.32-4.168 0-7.687 1.438-10.56 4.32-2.87 2.886-4.308 6.422-4.308 10.6 0 4.185 1.438 7.714 4.31 10.602 2.87 2.882 6.39 4.32 10.558 4.32 4.17 0 7.692-1.438 10.562-4.32 2.876-2.888 4.308-6.417 4.308-10.6 0-4.18-1.432-7.716-4.308-10.603z"/><path fill="#FF6F00" d="M750.64 460.728l-.168-23.91c-5.068.116-10.053 1.47-14.956 4.07-4.898 2.603-8.985 5.768-12.254 9.496v-12.037H697.92v91.228h25.342v-39.513c0-8.813 1.866-15.908 5.58-21.28 3.72-5.367 9.346-8.054 16.895-8.054h4.902zM811.98 503.545c-3.72 3.676-8.11 5.51-13.186 5.51-10.248 0-15.373-7.006-15.373-21.023v-49.684h-25.516v55.28c0 12.32 3.377 21.616 10.14 27.893 6.76 6.274 15.12 9.412 25.092 9.412 9.965 0 18.108-4.462 24.42-13.394v12.038h25.517v-91.228h-25.518v49.175c0 7.01-1.862 12.35-5.576 16.022z"/></svg>